<svg xmlns="http://www.w3.org/2000/svg" viewBox="0 0 256 256"><defs><style>.a{fill:#fefdfd;}.b{fill:#fe3434;}.c{fill:#37aa5b;}.d{fill:#37aa5a;}.e{fill:#35a85a;}.f{fill:#34a958;}.g{fill:#34a95b;}.h{fill:#34a859;}.i{fill:#35a85b;}.j{fill:#34a95c;}.k{fill:#f11cf3;}.l{fill:#12f9f5;}.m{fill:#1df3e9;}.n{fill:#08fbf9;}.o{fill:#e034e6;}.p{fill:#f70af8;}</style></defs><title>Artboard 1</title><path class="a" d="M127.43-.95q63.18,0,126.36-.05C255.7-1,256-.54,256,1.26q-.08,126.23,0,252.45c0,1.73-.2,2.29-2.17,2.29q-126.36-.1-252.72,0C-.7,256-1,255.58-1,253.87Q-.9,127.51-1,1.15C-1-.93-.3-1,1.33-1Q64.38-.92,127.43-.95ZM39,240.05l0,0c-.32.71.08.9.68.95,6.67,1.56,13.32,2.06,19.91-.39,1.76,0,2.44-1.28,3.08-2.55.94-1.87.67-3.93.85-5.94.15-1.86-.66-2.39-2.3-2.25-2.88,0-5.76,0-8.65,0-1.24,0-1.87.37-1.78,1.76.06.94.38,2.17-1.16,2.38-.22-.35-.63-.7-.63-1,0-4.66-.48-9.33.27-14l.71-.13.6.14,0,0c.09,1,.22,2,.26,2.92s.33,1.23,1.19,1.06h10.1c.77.13,1.35,0,1.36-1,0-2.26.25-4.57-.64-6.72-.49-1.2-.93-2.61-2.69-2.53-5.46-3.16-11.35-1.9-17.14-1.64a6,6,0,0,0-3.93,1.55c-.24.17-.73.12-.56.64h0c-2.05.56-2.33,2.44-2.37,4q-.24,9.22,0,18.46c.05,1.48.21,3.42,2.38,3.84l0,0C38.29,240.1,38.53,240.22,39,240.05ZM223.1,212.8l0,0c-.13-.68-.64-.51-1.09-.48-5.63-2.64-11.55-1.5-17.38-1.29-.77,0-1.74-.12-2.34.7-.8,0-1.62-.11-1.77,1h0c-2.48.6-2.94,2.73-3,4.68-.17,6-.14,12,0,18,0,1.85.53,3.72,2.52,4.64l0,0a1.12,1.12,0,0,0,1.16,1,12.85,12.85,0,0,0,4.16,1c3.49,0,7-.06,10.49.08a10.37,10.37,0,0,0,6.83-2c2.36-.84,3.18-2.67,3.26-6.6,0-1.64-.49-2.34-2.11-2.17-2.89,0-5.77,0-8.65,0-.8,0-1.86-.18-1.81,1.15.07,2-1.15,2.2-2.68,2-1.54-1.53-.51-3.45-.79-5.17l14.77-.18c1,.2,1.14-.38,1.13-1.17,0-3.65,0-7.31-.13-11-.06-1.47-.37-3-2.07-3.73l0,0C223.7,212.91,223.48,212.77,223.1,212.8Zm-78.45,28.76a2.18,2.18,0,0,0,1.95.43c4,0,8,.07,11.94.06a7,7,0,0,0,4.09-1.08c.42,0,1,.43,1.05-.45l0,0c2.25-.68,3.47-2.55,3.53-5.91.09-5,0-10.08,0-15.12a10.26,10.26,0,0,0-.64-4.27c-.59-1.35-1.09-3-3.08-2.92-6-2.65-12.17-1.59-18.33-1.1-.57,0-1.2-.18-1.55.52l0,0c-2.82.74-4.4,2.67-4.49,6.21q-.23,8.55,0,17.1c.06,2.16.55,4.42,2.94,5.48h0a2.72,2.72,0,0,0,2.58,1.07Zm-23.93-9.37,3.9,8.42c.34.73.49,1.71,1.7,1.38H138c2.12.06.84-1.11.56-1.73-2-4.43-4.57-8.58-6.31-13.13l.58-.55c2.5-.21,4.38-2,4.54-5.12.22-4.4.22-8.84,0-13.24-.15-3.06-2-4.88-4.54-5.14-1.21-.32-2.26-1.1-3.59-1.1-6.94,0-13.88,0-20.81,0-1.22-.23-1.17.61-1.17,1.4V240.6c0,.77-.1,1.64,1.15,1.39h11c1.46.29,1.2-.78,1.21-1.58C120.68,237.67,120.69,234.93,120.72,232.19Zm61.82-8.31c-.79-3.8-1.6-7.58-2.36-11.38-.18-.95-.19-1.95-1.6-1.65H168.3c-1.83,0-1,1.2-.84,1.93q3.48,13.86,7.06,27.7c.2.75.2,1.85,1.53,1.51h12.76a1.06,1.06,0,0,0,1.48-.93c.23-1.08.51-2.15.79-3.22,2.14-8.34,4.3-16.66,6.39-25,.17-.69,1.36-2.18-.86-2H186.28c-1.44-.22-1.39.9-1.57,1.78Q183.61,218.26,182.54,223.88ZM68.77,241.05c.2.6.7.49,1.15.49,5.34,1,10.7.65,16,.19,1-.08,2.31.15,2.89-1.16,2.73-.38,3.41-2.58,3.47-4.66.19-6.32.17-12.66,0-19,0-1.8-.56-3.81-2.94-4.22a10.25,10.25,0,0,0-1.72-.93c-5.38-1.78-10.88-1-16.34-.71-.78,0-1.75-.11-2.34.72-.51-.09-1-.06-1.23.5l0,0a4.68,4.68,0,0,0-3,4.63c-.17,6.32-.21,12.66,0,19,.08,2.41,1.13,4.68,4,5.18Zm160,.94h10.58c1.7.21,1.16-1.1,1.17-1.88,0-4.93.06-9.87,0-14.8a9.76,9.76,0,0,1,1-4.88c1.62-1,3.45-.22,5.14-.6,1.26.2,1.38-.63,1.38-1.56,0-2-.09-3.91,0-5.86.1-1.62-.57-2.14-2.05-1.91-2.07-.15-4.22,1.58-5.8,1-3.85-1.32-7.63-.5-11.43-.68-1.19-.17-1.19.64-1.19,1.45v28.25C227.61,241.32,227.5,242.21,228.76,242ZM33.92,209.64c.41,0,1,.13,1-.4q.09-3.41,0-6.81c0-.52-.61-.43-1-.4h-24c-1.16-.21-1.23.54-1.23,1.38q0,18.61,0,37.23c0,.82,0,1.61,1.22,1.36H34.46c.41,0,1,.13,1-.4q.09-3.41,0-6.81c0-.51-.62-.43-1-.41l-1-.18c-1.78,0-3.56-.07-5.34-.07-6.25,0-6.17,0-6.07-6.18,0-1.78.72-2.15,2.27-2.09,2.38.1,4.76,0,7.14,0,1.09,0,2.33-.16,1.87-1.61-.65-2.06,1.87-4.8-1.33-6.28l-9.91-.13V209.8Zm82.42-109,.53.5c-4.52,4.81-6.94,10.69-8.6,17s-3.78,12.23-7.78,17.42c-7,9.12-19.18,11.94-28.54,6.16C61.81,135.39,56.31,126.18,56,114.07c0-1.68.08-2.9,2.06-3.75a7.07,7.07,0,0,0,3.77-8,7.31,7.31,0,0,0-14.12-1,7,7,0,0,0,2.85,8.52c1.3.82,1.33,1.76,1.38,3a50.43,50.43,0,0,0,5.25,21.48c10.63,20.71,32.17,19.95,44.92,11.22,10.93-7.49,16.52-18.6,18.45-31.61,1-6.46.77-13.15,4-19.17-19.65,2.61-37,22.8-37.34,43.41a20.33,20.33,0,0,0,13.27-9.65c2.44-4,3.66-8.43,5.07-12.83C107.55,109.54,110.61,104.12,116.34,100.62Zm1-12a1.29,1.29,0,0,1-1.52.32c-5.91-1.38-11.72-.65-17.46.93a54.36,54.36,0,0,1-18.2,2.27c-12-.79-21.38-10.31-21-21.9s5.28-20.87,15.28-27.17c1.81-1.14,3.29-1.74,5.46-.3,2.85,1.88,6.18,1.09,8.63-1.39a7.38,7.38,0,0,0,1.11-8.56A7.61,7.61,0,0,0,82.13,29,7.14,7.14,0,0,0,76,35.61a3.22,3.22,0,0,1-1.89,2.94,51.71,51.71,0,0,0-13,11.16C48.26,65.07,50.62,85,67,96.19c9.39,6.4,20.05,7.1,31,5.3,9.86-1.63,18-8.34,28.3-9.16C107.22,74.62,90.22,72.27,69.79,81.82a19,19,0,0,0,9.85,6.1c5.29,1.26,10.53.57,15.7-.76A38.16,38.16,0,0,1,109,85.89,17.33,17.33,0,0,1,117.39,88.62Zm19,12.18a12.08,12.08,0,0,1,2.33,0c6.46,1.51,12.73.39,19-1.29a51.48,51.48,0,0,1,16.7-1.92c12.48.8,21.8,10.84,21,23.18-.74,11.3-5.84,20.2-15.73,26.1-1.61,1-2.87,1.54-4.77.13-2.6-1.91-6.07-1.28-8.48.93a7.59,7.59,0,0,0-1.65,8.5,7.44,7.44,0,0,0,7.52,4.22c3.4-.53,6-2.88,6.28-6.14a4.46,4.46,0,0,1,2.47-3.78A47.33,47.33,0,0,0,196.9,135c11.19-18.21,1.38-35.91-11.39-42.81S159.22,86,146,91.62c-5.68,2.4-11.13,5.43-17.67,5.69,17.2,16.38,34.37,20.8,56.47,10.58a19.49,19.49,0,0,0-9.9-6c-5.29-1.28-10.52-.6-15.7.73C151.57,104.54,144.06,105.07,136.38,100.8Zm31.05-49.24a19.55,19.55,0,0,0-11.06,6.38c-3.33,4-5.21,8.58-6.56,13.48-1.64,5.93-4,11.46-8.71,15.67-.79.71-1.52,1.74-3.07,1.15,5-5.22,7-11.82,8.85-18.49,1.45-5.19,3.25-10.25,6.47-14.69,6.3-8.7,17.14-12.53,25.92-8.53,11.89,5.41,18.39,14.82,19.25,28,.16,2.37.31,4.63-2.78,5.28-.44.1-.81.61-1.16,1a7.37,7.37,0,1,0,10.8,10,7,7,0,0,0-.62-10.26c-1.79-1.41-2.16-2.86-2.24-4.92a50.7,50.7,0,0,0-3-15.29c-7.63-21.14-30.77-28.7-48.2-15.41-10.26,7.82-15.67,18.71-17.39,31.47-.84,6.29-.75,12.77-4,18.64C149.81,92.25,164.64,75.06,167.43,51.56ZM127,105.32c1.73,7.36,6.17,12.91,11.29,18.05,1.69,1.69,3.33,3.45,4.87,5.27a34.94,34.94,0,0,1,6.43,11c3.34,9.52.45,20.27-7.3,25.22-11,7.06-22.52,7.62-34.16,1.23-1.42-.78-2.25-1.56-2-3.53.35-3.23-2-6.18-5.07-7.21a7.56,7.56,0,0,0-8.37,2.93,7.33,7.33,0,0,0,.43,8.63,6.87,6.87,0,0,0,8.51,2.08,3.8,3.8,0,0,1,3.95.29c7.83,4.15,16.1,6.49,25.06,6,16.47-.9,29.59-16,28.14-32.39-1.2-13.57-7.67-24.25-18.17-32.6-5.15-4.1-11-7.38-14.91-13.41-.31,1.35-.55,2.24-.71,3.14-1.87,10.07-2.11,20,1.62,29.82,3.38,8.83,10,15,17,20.76,1.46,1.21,1.46-.12,1.67-1,1.63-6.65-.34-12.47-4.1-17.89-2.06-3-4.69-5.43-7.05-8.13C129.49,118.39,126.42,112.53,127,105.32ZM129,93c6.21-28.15-3.11-43.2-19.14-54.34a17.74,17.74,0,0,0-.81,9.1c.8,5,3.41,9.06,6.57,12.84,3,3.54,6.35,6.71,8.71,10.74s3.77,8.31,3.28,13.09a37.58,37.58,0,0,0-4.87-10.59A76.34,76.34,0,0,0,115,65a43.69,43.69,0,0,1-9.48-13.9c-4.12-10-1.16-21.31,7.71-26.71,11.17-6.81,22.69-7.25,34.14-.28a2.29,2.29,0,0,1,1.27,2.65,7.19,7.19,0,0,0,4.59,7.53,7.38,7.38,0,0,0,8.25-11.68,7.23,7.23,0,0,0-8.83-1.82,2.74,2.74,0,0,1-3-.09,53.71,53.71,0,0,0-18.08-6.09C111.67,11.72,95,26.47,96,46.55c.6,12.55,6.54,22.62,15.72,30.91C117.36,82.57,124.61,85.89,129,93Z"/><path class="b" d="M117.39,88.62A17.33,17.33,0,0,0,109,85.89a38.16,38.16,0,0,0-13.69,1.27c-5.17,1.33-10.41,2-15.7.76a19,19,0,0,1-9.85-6.1c20.43-9.55,37.43-7.2,56.51,10.51-10.28.82-18.44,7.53-28.3,9.16-11,1.8-21.62,1.1-31-5.3C50.62,85,48.26,65.07,61.15,49.71a51.71,51.71,0,0,1,13-11.16A3.22,3.22,0,0,0,76,35.61,7.14,7.14,0,0,1,82.13,29a7.61,7.61,0,0,1,7.54,3.82,7.38,7.38,0,0,1-1.11,8.56c-2.45,2.48-5.78,3.27-8.63,1.39-2.17-1.44-3.65-.84-5.46.3-10,6.3-14.92,15.56-15.28,27.17s9,21.11,21,21.9a54.36,54.36,0,0,0,18.2-2.27c5.74-1.58,11.55-2.31,17.46-.93A1.29,1.29,0,0,0,117.39,88.62Z"/><path class="c" d="M136.38,100.8c7.68,4.27,15.19,3.74,22.8,1.8,5.18-1.33,10.41-2,15.7-.73a19.49,19.49,0,0,1,9.9,6c-22.1,10.22-39.27,5.8-56.47-10.58,6.54-.26,12-3.29,17.67-5.69,13.24-5.6,26.65-6.35,39.53.61s22.58,24.6,11.39,42.81A47.33,47.33,0,0,1,181,150.75a4.46,4.46,0,0,0-2.47,3.78c-.27,3.26-2.88,5.61-6.28,6.14a7.44,7.44,0,0,1-7.52-4.22,7.59,7.59,0,0,1,1.65-8.5c2.41-2.21,5.88-2.84,8.48-.93,1.9,1.41,3.16.83,4.77-.13,9.89-5.9,15-14.8,15.73-26.1.82-12.34-8.5-22.38-21-23.18a51.48,51.48,0,0,0-16.7,1.92c-6.23,1.68-12.5,2.8-19,1.29A12.08,12.08,0,0,0,136.38,100.8Z"/><path class="d" d="M116.34,100.62c-5.73,3.5-8.79,8.92-10.76,15.08-1.41,4.4-2.63,8.84-5.07,12.83a20.33,20.33,0,0,1-13.27,9.65c.3-20.61,17.69-40.8,37.34-43.41-3.23,6-3,12.71-4,19.17-1.93,13-7.52,24.12-18.45,31.61-12.75,8.73-34.29,9.49-44.92-11.22A50.43,50.43,0,0,1,52,112.85c-.05-1.2-.08-2.14-1.38-3a7,7,0,0,1-2.85-8.52,7.31,7.31,0,0,1,14.12,1,7.07,7.07,0,0,1-3.77,8c-2,.85-2.1,2.07-2.06,3.75.29,12.11,5.79,21.32,15.93,27.59,9.36,5.78,21.54,3,28.54-6.16,4-5.19,6.13-11.2,7.78-17.42s4.08-12.15,8.6-17l.68-.82c.21,0,.46-.1.3-.4a3.25,3.25,0,0,0-.53.19Z"/><path class="b" d="M167.43,51.56c-2.79,23.5-17.62,40.69-37.5,43.5,3.24-5.87,3.15-12.35,4-18.64,1.72-12.76,7.13-23.65,17.39-31.47,17.43-13.29,40.57-5.73,48.2,15.41a50.7,50.7,0,0,1,3,15.29c.08,2.06.45,3.51,2.24,4.92a7,7,0,0,1,.62,10.26,7.37,7.37,0,1,1-10.8-10c.35-.37.72-.88,1.16-1,3.09-.65,2.94-2.91,2.78-5.28-.86-13.18-7.36-22.59-19.25-28-8.78-4-19.62-.17-25.92,8.53-3.22,4.44-5,9.5-6.47,14.69C145,76.42,143.05,83,138,88.24c1.55.59,2.28-.44,3.07-1.15,4.7-4.21,7.07-9.74,8.71-15.67,1.35-4.9,3.23-9.53,6.56-13.48A19.55,19.55,0,0,1,167.43,51.56Z"/><path class="b" d="M127,105.32c-.53,7.21,2.54,13.07,7.11,18.3,2.36,2.7,5,5.17,7.05,8.13,3.76,5.42,5.73,11.24,4.1,17.89-.21.85-.21,2.18-1.67,1-7-5.8-13.64-11.93-17-20.76-3.73-9.78-3.49-19.75-1.62-29.82.16-.9.4-1.79.71-3.14,3.92,6,9.76,9.31,14.91,13.41,10.5,8.35,17,19,18.17,32.6,1.45,16.43-11.67,31.49-28.14,32.39-9,.49-17.23-1.85-25.06-6a3.8,3.8,0,0,0-3.95-.29A6.87,6.87,0,0,1,93,166.92a7.33,7.33,0,0,1-.43-8.63,7.56,7.56,0,0,1,8.37-2.93c3.08,1,5.42,4,5.07,7.21-.21,2,.62,2.75,2,3.53,11.64,6.39,23.12,5.83,34.16-1.23,7.75-5,10.64-15.7,7.3-25.22a34.94,34.94,0,0,0-6.43-11c-1.54-1.82-3.18-3.58-4.87-5.27C133.12,118.23,128.68,112.68,127,105.32Z"/><path class="d" d="M129,93c-4.41-7.13-11.66-10.45-17.33-15.56C102.51,69.17,96.57,59.1,96,46.55c-1-20.08,15.7-34.83,35.55-31.92a53.71,53.71,0,0,1,18.08,6.09,2.74,2.74,0,0,0,3,.09,7.23,7.23,0,0,1,8.83,1.82,7.38,7.38,0,0,1-8.25,11.68,7.19,7.19,0,0,1-4.59-7.53,2.29,2.29,0,0,0-1.27-2.65c-11.45-7-23-6.53-34.14.28-8.87,5.4-11.83,16.66-7.71,26.71A43.69,43.69,0,0,0,115,65a76.34,76.34,0,0,1,7.8,8.84,37.58,37.58,0,0,1,4.87,10.59c.49-4.78-.9-9-3.28-13.09s-5.75-7.2-8.71-10.74c-3.16-3.78-5.77-7.83-6.57-12.84a17.74,17.74,0,0,1,.81-9.1C125.91,49.82,135.23,64.87,129,93Z"/><path class="e" d="M138,242h-11.7l-6.2-14.28c-.85.73-.49,1.36-.57,1.91L119.43,242h-11q0-20,0-40c6.93,0,13.87,0,20.81,0,1.33,0,2.38.78,3.59,1.1a7.16,7.16,0,0,1,3.26,6.5c0,3.5,0,7,0,10.52a7.12,7.12,0,0,1-3.26,6.48l-.58.55c-1.78-.16-1.21.79-.78,1.67Q134.76,235.4,138,242Zm-13.84-31.76c0-.47-.37-.44-.69-.43h-2.84c-.93-.24-1.22.23-1.22,1.08q0,4.11,0,8.21c0,.83.24,1.36,1.21,1.07l2.55.09c.39.09.79.2,1-.33l0,0c.61.07,1-.22,1-.82q0-4.08,0-8.15c0-.6-.39-.91-1-.78Z"/><path class="f" d="M33.46,234.19l1,.18,0,7.62H9.88q0-20,0-40h24q0,3.79,0,7.61l-11.82.16c-.74-.15-1.38-.14-1.38.87,0,2.11,0,4.21,0,6.32,0,1,.66,1,1.38.87L32,218v2.56c0,5.26,0,5.26-5.17,5.26-6.55,0-6.52,0-6.16,6.74.07,1.34.45,1.72,1.81,1.68C26.14,234.12,29.8,234.19,33.46,234.19Z"/><path class="g" d="M224.68,229.16l-14.77.18c-2.36.47-.79,2.27-1.09,3.41-.38,1.48.7,1.9,1.94,2,1.88.12,3.85.52,4.15-2.33.11-1,1.18-.76,1.9-.78,2.29-.08,4.58-.11,6.87-.16,1,0,.93.68,1,1.38a10.37,10.37,0,0,1-2,7.27,10.37,10.37,0,0,1-6.83,2c-3.5-.14-7,0-10.49-.08a12.85,12.85,0,0,1-4.16-1c-.15-.6-.19-1.34-1.16-1l0,0c-.73-2.74-1.61-5.42-1.46-8.35.17-3.13.1-6.28,0-9.42-.08-3.33.13-6.57,1.93-9.51h0c.81.07,1.27-.51,1.77-1,.6-.82,1.57-.68,2.34-.7,5.83-.21,11.75-1.35,17.38,1.29.29.32.46.94,1.09.48l0,0c-.21.56-.07.78.53.54l0,0C225.38,218.5,224.46,223.87,224.68,229.16Zm-14.77-5.78,3.42,0c1.78.29,1.46-1.07,1.39-2-.08-1.18.64-2.94-1.61-3h0l-.61-.14-2.27.13c-1.56-.2-1.67.94-1.45,1.9S207.72,223.06,209.91,223.38Z"/><path class="h" d="M69,211.79c.59-.83,1.56-.68,2.34-.72,5.46-.3,11-1.07,16.34.71a10.25,10.25,0,0,1,1.72.93,11.3,11.3,0,0,1,2,7.15q-.15,6.78,0,13.56a9.33,9.33,0,0,1-2.53,7.15c-.58,1.31-1.89,1.08-2.89,1.16-5.35.46-10.71.77-16-.19a1.28,1.28,0,0,0-1.15-.49l0,0a9.65,9.65,0,0,1-3.11-8c.14-3.41.12-6.84,0-10.25-.12-3.69,0-7.29,2.09-10.52l0,0C68.32,212.48,68.67,212.18,69,211.79Zm10.59,22.56,0,0c1.42.18,1.5-.84,1.5-1.79,0-4.08,0-8.17,0-12.25,0-1.14-.29-2.05-1.73-1.91a.65.65,0,0,1-.31,0l-.15-.15-.14.12-1.06.11c-1.79-.2-1.61,1.12-1.62,2.19,0,3.84,0,7.67,0,11.51,0,1.7.53,2.59,2.28,2.56C78.76,234.71,79.28,234.91,79.58,234.35Z"/><path class="i" d="M145.18,211.23c6.16-.49,12.36-1.55,18.33,1.1a9.43,9.43,0,0,1,2.44,7c0,4.69,0,9.39,0,14.09a10.27,10.27,0,0,1-2.31,7.09l0,0c-.41,0-.87-.1-1.05.45a7,7,0,0,1-4.09,1.08c-4,0-8,0-11.94-.06a2.8,2.8,0,0,0-1.95-.43l.06,0c-.78-.56-1.49-1.28-2.58-1.07h0c-1.67-3.28-1.78-6.79-1.68-10.37.1-3.41.15-6.83,0-10.24s.64-6,3.22-8.18l0,0A1.75,1.75,0,0,0,145.18,211.23Zm7,23.15h2c1.49.14,1.35-1,1.36-1.86,0-4,0-8.11,0-12.17,0-1,0-2-1.38-1.89l-1.84,0c-1.19-.2-1.5.48-1.5,1.48q0,6.54,0,13.06C150.8,233.91,151.07,234.54,152.14,234.38Z"/><path class="j" d="M59.61,240.59C53,243,46.37,242.54,39.7,241c-.08-.43-.07-.91-.68-.95l0,0a.48.48,0,0,0-.53-.53v0a53.7,53.7,0,0,1,0-26.27h0c.44,0,.58-.24.56-.64A6,6,0,0,1,43,211.09c5.79-.26,11.68-1.52,17.14,1.64,2.53,3,2.07,6.66,2,10.21H52c-.59-1.28,1.13-3.42-1.45-4l0,0-.6-.14-.71.13c-1.39-.2-1.49.73-1.49,1.74,0,3.82,0,7.64,0,11.45,0,1.42.58,2,1.93,2.07,1.69.28,2.41-.52,2.24-2.15s.55-2.07,2.06-2c2.37.06,4.75,0,7.13-.08.71,0,1,.38,1,1.11C62.28,234.5,62.46,238,59.61,240.59Z"/><path class="e" d="M188.81,242H176.05c-.11-.58-.19-1.17-.34-1.75q-3.69-14.69-7.41-29.39h10.28L182,227.44c.26.71-.18,1.6.75,2.48,1.22-6.51,2.39-12.79,3.56-19.07h10.33c-.14.75-.24,1.51-.42,2.25Z"/><path class="i" d="M239.34,242H228.76q0-15.57,0-31.13c3.8.18,7.58-.64,11.43.68,1.58.54,3.73-1.19,5.79-1,.88.06.73.74.73,1.3,0,2.68-.05,5.35-.08,8-1.69.38-3.52-.4-5.14.6-2.34.44-2.13,2.36-2.15,4C239.31,230.27,239.34,236.13,239.34,242Z"/><path class="k" d="M188.81,242l7.38-28.9c.18-.74.28-1.5.42-2.25,2.22-.19,1,1.3.86,2-2.09,8.35-4.25,16.67-6.39,25-.28,1.07-.56,2.14-.79,3.22A1.06,1.06,0,0,1,188.81,242Z"/><path class="l" d="M168.3,210.85q3.72,14.7,7.41,29.39c.15.58.23,1.17.34,1.75-1.33.34-1.33-.76-1.53-1.51q-3.57-13.83-7.06-27.7C167.27,212.05,166.47,210.8,168.3,210.85Z"/><path class="m" d="M143.67,211.73c-2.58,2.13-3.38,4.9-3.22,8.18s.11,6.83,0,10.24c-.1,3.58,0,7.09,1.68,10.37-2.39-1.06-2.88-3.32-2.94-5.48q-.25-8.55,0-17.1C139.27,214.4,140.85,212.47,143.67,211.73Z"/><path class="k" d="M163.65,240.55a10.27,10.27,0,0,0,2.31-7.09c-.06-4.7,0-9.4,0-14.09a9.43,9.43,0,0,0-2.44-7c2-.05,2.49,1.57,3.08,2.92a10.26,10.26,0,0,1,.64,4.27c0,5,0,10.08,0,15.12C167.12,238,165.9,239.87,163.65,240.55Z"/><path class="n" d="M9.89,202q0,20,0,40c-1.19.25-1.22-.54-1.22-1.36q0-18.62,0-37.23C8.66,202.56,8.73,201.81,9.89,202Z"/><path class="n" d="M108.45,202q0,20,0,40c-1.25.25-1.15-.62-1.15-1.39V203.43C107.28,202.64,107.23,201.8,108.45,202Z"/><path class="o" d="M33.46,234.19c-3.66,0-7.32-.07-11,0-1.36,0-1.74-.34-1.81-1.68-.36-6.74-.39-6.74,6.16-6.74,5.17,0,5.17,0,5.17-5.26V218c3.2,1.48.68,4.22,1.33,6.28.46,1.45-.78,1.61-1.87,1.61-2.38,0-4.76.07-7.14,0-1.55-.06-2.24.31-2.27,2.09-.1,6.17-.18,6.17,6.07,6.18C29.9,234.12,31.68,234.16,33.46,234.19Z"/><path class="k" d="M132.85,226.59a7.12,7.12,0,0,0,3.26-6.48c0-3.51,0-7,0-10.52a7.16,7.16,0,0,0-3.26-6.5c2.51.26,4.39,2.08,4.54,5.14.22,4.4.22,8.84,0,13.24C137.23,224.56,135.35,226.38,132.85,226.59Z"/><path class="n" d="M67.8,212.27c-2.08,3.23-2.21,6.83-2.09,10.52.11,3.41.13,6.84,0,10.25a9.65,9.65,0,0,0,3.11,8c-2.91-.5-4-2.77-4-5.18-.21-6.33-.17-12.67,0-19A4.68,4.68,0,0,1,67.8,212.27Z"/><path class="n" d="M228.8,210.86q0,15.57,0,31.13c-1.26.22-1.15-.67-1.15-1.43V212.31C227.61,211.5,227.61,210.69,228.8,210.86Z"/><path class="n" d="M200.56,212.75c-1.8,2.94-2,6.18-1.93,9.51.08,3.14.15,6.29,0,9.42-.15,2.93.73,5.61,1.46,8.35-2-.92-2.49-2.79-2.52-4.64-.12-6-.15-12,0-18C197.62,215.48,198.08,213.35,200.56,212.75Z"/><path class="p" d="M88.86,240.57a9.33,9.33,0,0,0,2.53-7.15q-.15-6.78,0-13.56a11.3,11.3,0,0,0-2-7.15c2.38.41,2.89,2.42,2.94,4.22.17,6.32.19,12.66,0,19C92.27,238,91.59,240.19,88.86,240.57Z"/><path class="l" d="M38.52,213.27a53.7,53.7,0,0,0,0,26.27c-2.16-.42-2.32-2.36-2.37-3.84q-.26-9.22,0-18.46C36.19,215.71,36.47,213.83,38.52,213.27Z"/><path class="l" d="M186.28,210.85c-1.17,6.28-2.34,12.56-3.56,19.07-.93-.88-.49-1.77-.75-2.48l.57-3.56q1.08-5.62,2.17-11.25C184.89,211.75,184.84,210.63,186.28,210.85Z"/><path class="k" d="M138,242q-3.26-6.6-6.53-13.19c-.43-.88-1-1.83.78-1.67,1.74,4.55,4.31,8.7,6.31,13.13C138.86,240.89,140.14,242.06,138,242Z"/><path class="p" d="M239.34,242c0-5.86,0-11.72,0-17.57,0-1.63-.19-3.55,2.15-4a9.76,9.76,0,0,0-1,4.88c.06,4.93,0,9.87,0,14.8C240.5,240.89,241,242.2,239.34,242Z"/><path class="k" d="M182.54,223.88l-.57,3.56-3.39-16.59c1.41-.3,1.42.7,1.6,1.65C180.94,216.3,181.75,220.08,182.54,223.88Z"/><path class="l" d="M119.55,229.62c.08-.55-.28-1.18.57-1.91l6.2,14.28c-1.21.33-1.36-.65-1.7-1.38l-3.9-8.42A5.59,5.59,0,0,0,119.55,229.62Z"/><path class="k" d="M59.61,240.59c2.85-2.64,2.67-6.09,2.57-9.53,0-.73-.34-1.09-1-1.11l.11-.1c1.64-.14,2.45.39,2.3,2.25-.18,2,.09,4.07-.85,5.94C62.05,239.31,61.37,240.64,59.61,240.59Z"/><path class="p" d="M224.68,229.16c-.22-5.29.7-10.66-1.07-15.85,1.7.68,2,2.26,2.07,3.73.16,3.64.1,7.3.13,11C225.82,228.78,225.66,229.36,224.68,229.16Z"/><path class="p" d="M49.7,234.22c-1.35,0-2-.65-1.93-2.07.07-3.81,0-7.63,0-11.45,0-1,.1-1.94,1.49-1.74-.75,4.64-.24,9.31-.27,14,0,.34.41.69.63,1Z"/><path class="k" d="M246.67,219.83c0-2.68.06-5.35.08-8,0-.56.15-1.24-.73-1.3,1.49-.23,2.16.29,2.06,1.91-.12,2,0,3.91,0,5.86C248.05,219.2,247.93,220,246.67,219.83Z"/><path class="k" d="M62.12,222.94c.1-3.55.56-7.17-2-10.21,1.76-.08,2.2,1.33,2.69,2.53.89,2.15.65,4.46.64,6.72C63.47,222.91,62.89,223.07,62.12,222.94Z"/><path class="k" d="M222.69,240.12a10.37,10.37,0,0,0,2-7.27c-.07-.7,0-1.39-1-1.38l.16-.12c1.62-.17,2.14.53,2.11,2.17C225.87,237.45,225.05,239.28,222.69,240.12Z"/><path class="o" d="M22.09,217.86c-.72.13-1.38.17-1.38-.87,0-2.11,0-4.21,0-6.32,0-1,.64-1,1.38-.87C22.1,212.49,22.1,215.17,22.09,217.86Z"/><path class="p" d="M119.55,229.62a5.59,5.59,0,0,1,1.17,2.57c0,2.74,0,5.48-.08,8.22,0,.8.25,1.87-1.21,1.58Z"/><path class="m" d="M223.84,231.35l-.16.12c-2.29.05-4.58.08-6.87.16-.72,0-1.79-.26-1.9.78-.3,2.85-2.27,2.45-4.15,2.33l-.06-.23c1.53.19,2.75,0,2.68-2,0-1.33,1-1.14,1.81-1.15C218.07,231.32,221,231.35,223.84,231.35Z"/><path class="l" d="M49.7,234.22l-.05-.25c1.54-.21,1.22-1.44,1.16-2.38-.09-1.39.54-1.78,1.78-1.76,2.89,0,5.77,0,8.65,0l-.11.1c-2.38,0-4.76.14-7.13.08-1.51,0-2.22.45-2.06,2S51.39,234.5,49.7,234.22Z"/><path class="p" d="M33.92,209.64q0-3.81,0-7.61c.41,0,1-.12,1,.4q.09,3.4,0,6.81C34.92,209.77,34.33,209.67,33.92,209.64Z"/><path class="p" d="M34.46,242l0-7.62c.41,0,1-.1,1,.41q.11,3.41,0,6.81C35.47,242.12,34.87,242,34.46,242Z"/><path class="p" d="M210.7,234.51l.06.23c-1.24-.09-2.32-.51-1.94-2,.3-1.14-1.27-2.94,1.09-3.41C210.19,231.06,209.16,233,210.7,234.51Z"/><path class="l" d="M50.57,219c2.58.56.86,2.7,1.45,4-.86.17-1.16-.23-1.19-1.06S50.66,219.93,50.57,219Z"/><path class="m" d="M142.13,240.51c1.09-.21,1.8.51,2.58,1.07A2.72,2.72,0,0,1,142.13,240.51Z"/><path class="n" d="M202.32,211.76c-.5.49-1,1.07-1.77,1C200.7,211.65,201.52,211.72,202.32,211.76Z"/><path class="m" d="M144.65,241.56a2.8,2.8,0,0,1,1.95.43A2.18,2.18,0,0,1,144.65,241.56Z"/><path class="m" d="M145.18,211.23a1.75,1.75,0,0,1-1.55.52C144,211.05,144.61,211.25,145.18,211.23Z"/><path class="n" d="M200.05,240c1-.37,1,.37,1.16,1A1.12,1.12,0,0,1,200.05,240Z"/><path class="n" d="M69,211.79c-.32.39-.67.69-1.23.5C68,211.73,68.48,211.7,69,211.79Z"/><path class="p" d="M223.13,212.83c-.63.46-.8-.16-1.09-.48C222.49,212.32,223,212.15,223.13,212.83Z"/><path class="k" d="M162.63,241c.18-.55.64-.45,1.05-.45C163.64,241.4,163.05,241,162.63,241Z"/><path class="n" d="M68.77,241.05a1.28,1.28,0,0,1,1.15.49C69.47,241.54,69,241.65,68.77,241.05Z"/><path class="l" d="M39,240c.61,0,.6.52.68.95C39.1,240.93,38.7,240.74,39,240Z"/><path class="l" d="M50,218.83l.6.14Z"/><path class="l" d="M39.08,212.64c0,.4-.12.65-.56.64C38.35,212.76,38.84,212.81,39.08,212.64Z"/><path class="p" d="M223.63,213.34c-.6.24-.74,0-.53-.54C223.48,212.77,223.7,212.91,223.63,213.34Z"/><path class="l" d="M38.51,239.52a.48.48,0,0,1,.53.53C38.53,240.22,38.29,240.1,38.51,239.52Z"/><path class="a" d="M117.55,100.3l-.68.82-.53-.5,1-.53Z"/><path class="a" d="M117.32,100.09a3.25,3.25,0,0,1,.53-.19c.16.3-.09.35-.3.4Z"/><path class="a" d="M123.2,220.27l-2.55-.09V209.82h2.84l.69.43,0,0V220l0,0C123.76,219.76,123.5,220.08,123.2,220.27Z"/><path class="p" d="M120.65,209.82v10.36c-1,.29-1.21-.24-1.21-1.07q0-4.1,0-8.21C119.43,210.05,119.72,209.58,120.65,209.82Z"/><path class="n" d="M124.15,220v-9.75c.64-.13,1,.18,1,.78q0,4.06,0,8.15C125.16,219.75,124.76,220,124.15,220Z"/><path class="n" d="M123.2,220.27c.3-.19.56-.51,1-.33C124,220.47,123.59,220.36,123.2,220.27Z"/><path class="n" d="M124.18,210.24l-.69-.43C123.81,209.8,124.15,209.77,124.18,210.24Z"/><path class="a" d="M213.15,218.45h0a17.63,17.63,0,0,1,.22,5l-3.42,0c.08-1.65-.29-3.33.36-4.94l2.27-.13Z"/><path class="n" d="M213.33,223.41a17.63,17.63,0,0,0-.22-5c2.25.06,1.53,1.82,1.61,3C214.79,222.34,215.11,223.7,213.33,223.41Z"/><path class="p" d="M210.27,218.44c-.65,1.61-.28,3.29-.36,4.94-2.19-.32-.84-2-1.09-3S208.71,218.24,210.27,218.44Z"/><path class="n" d="M213.15,218.45l-.61-.14Z"/><path class="a" d="M79,218.37a.65.65,0,0,0,.31,0c.74,5.31.35,10.63.22,16l0,0-1.3.07c-.65-.09-.81-.58-.81-1.11.06-5-.3-9.91.2-14.86l1.06-.11.14.06Z"/><path class="o" d="M77.67,218.45c-.5,5-.14,9.9-.2,14.86,0,.53.16,1,.81,1.11a.71.71,0,0,1,0,.29c-1.75,0-2.32-.86-2.28-2.56.09-3.84,0-7.67,0-11.51C76.06,219.57,75.88,218.25,77.67,218.45Z"/><path class="m" d="M79.55,234.37c.13-5.32.52-10.64-.22-16,1.44-.14,1.73.77,1.73,1.91,0,4.08,0,8.17,0,12.25C81.05,233.53,81,234.55,79.55,234.37Z"/><path class="m" d="M78.29,234.71a.71.71,0,0,0,0-.29l1.3-.07C79.28,234.91,78.76,234.71,78.29,234.71Z"/><polygon class="m" points="79.02 218.37 78.87 218.4 78.73 218.34 78.87 218.22 79.02 218.37"/><path class="a" d="M152.29,218.48l1.84,0a93,93,0,0,1,0,15.92h-2A82,82,0,0,1,152.29,218.48Z"/><path class="p" d="M152.29,218.48a82,82,0,0,0-.15,15.9c-1.07.16-1.34-.47-1.34-1.36q0-6.53,0-13.06C150.79,219,151.1,218.28,152.29,218.48Z"/><path class="n" d="M154.15,234.37a93,93,0,0,0,0-15.92c1.42-.07,1.38.94,1.38,1.89,0,4.06,0,8.12,0,12.17C155.5,233.42,155.64,234.51,154.15,234.37Z"/></svg>